<?xml version="1.0" encoding="utf-8"?>
<!-- Generator: Adobe Illustrator 24.2.0, SVG Export Plug-In . SVG Version: 6.00 Build 0)  -->
<svg version="1.1" id="Layer_2" xmlns="http://www.w3.org/2000/svg" xmlns:xlink="http://www.w3.org/1999/xlink" x="0px" y="0px"
	 viewBox="0 0 1024 768" style="enable-background:new 0 0 1024 768;" xml:space="preserve">
<style type="text/css">
	.st0{fill:#FFFFCC;}
	.st1{fill:none;stroke:#CC6666;stroke-miterlimit:10;}
	.st2{fill:none;stroke:#CC9966;stroke-miterlimit:10;}
</style>
<g>
	<rect class="st0" width="1024" height="768"/>
</g>
<line class="st1" x1="893.5" y1="0" x2="893.5" y2="768"/>
<line class="st2" x1="1" y1="768.5" x2="1024" y2="768.5"/>
<line class="st2" x1="-0.5" y1="67.74" x2="1023.5" y2="67.74"/>
<line class="st2" x1="-0.5" y1="112.97" x2="1023.5" y2="112.97"/>
<line class="st2" x1="-0.5" y1="158.21" x2="1023.5" y2="158.21"/>
<line class="st2" x1="-0.5" y1="203.44" x2="1023.5" y2="203.44"/>
<line class="st2" x1="-0.5" y1="248.68" x2="1023.5" y2="248.68"/>
<line class="st2" x1="-0.5" y1="293.91" x2="1023.5" y2="293.91"/>
<line class="st2" x1="-0.5" y1="339.15" x2="1023.5" y2="339.15"/>
<line class="st2" x1="-0.5" y1="384.38" x2="1023.5" y2="384.38"/>
<line class="st2" x1="-0.5" y1="429.62" x2="1023.5" y2="429.62"/>
<line class="st2" x1="-0.5" y1="474.85" x2="1023.5" y2="474.85"/>
<line class="st2" x1="-0.5" y1="520.09" x2="1023.5" y2="520.09"/>
<line class="st2" x1="-0.5" y1="565.32" x2="1023.5" y2="565.32"/>
<line class="st2" x1="-0.5" y1="610.56" x2="1023.5" y2="610.56"/>
<line class="st2" x1="-0.5" y1="655.79" x2="1023.5" y2="655.79"/>
<line class="st2" x1="-0.5" y1="701.03" x2="1023.5" y2="701.03"/>
<line class="st2" x1="-0.5" y1="746.26" x2="1023.5" y2="746.26"/>
<line class="st2" x1="0" y1="22.5" x2="1024" y2="22.5"/>
</svg>
